<svg xmlns="http://www.w3.org/2000/svg" viewBox="0 0 512 204"><path d="M486.7 17.9c4 .1 7.2 3.5 7.3 7.7v151.8c-.1 4.2-3.3 7.6-7.3 7.7H25.3c-4-.1-7.2-3.5-7.3-7.7V25.6c.1-4.2 3.3-7.6 7.3-7.7h461.4m0-18.9H25.3C11.3-1 0 10.9 0 25.6v151.8C0 192.1 11.3 204 25.3 204h461.4c13.9 0 25.2-11.9 25.3-26.6V25.6C512 10.9 500.7-1 486.7-1z"/><path d="M133.3 124V74.5h23.1c9.9 0 15.7 4.7 15.7 12.3 0 5.3-4 9.8-9.2 10.5v.7c6.5.3 11.5 5.4 11.5 11.7 0 8.7-6.7 14.3-17.3 14.3h-23.8zm12.6-29.3h6.7c4.6 0 7.3-2.1 7.3-5.6 0-3.5-2.5-5.7-6.8-5.7H146v11.3zm7.6 20.4c5.2 0 8.1-2.3 8.1-6.5 0-4-2.9-6.3-8.1-6.3H146v12.8h7.5zm65.2 8.9h-11.8v-6.2h-.7c-1.8 4.5-5.1 7.1-10.8 7.1-8.1 0-13.5-5.3-13.5-14.1v-25H194v22c0 4.7 2.3 7.1 6.2 7.1 4.1 0 6.4-2.8 6.4-7.3V85.8h12.1V124zm24.6-46.9v9.3h7.7v9h-7.7v15.5c0 2.9 1.5 4.3 4.6 4.3 1.4 0 2.2-.1 3.1-.2v8.6c-1.3.3-3.5.5-5.8.5-10 0-14-3.1-14-10.5V95.4h-5.9v-9h5.9v-9.3h12.1zm31.3 0v9.3h7.7v9h-7.7v15.5c0 2.9 1.5 4.3 4.6 4.3 1.4 0 2.2-.1 3.1-.2v8.6c-1.3.3-3.5.5-5.8.5-10 0-14-3.1-14-10.5V95.4h-5.9v-9h5.9v-9.3h12.1zm13.7 27.8c0-12.3 7.4-20 19.4-20 12.1 0 19.4 7.5 19.4 20 0 12.6-7.2 20-19.4 20s-19.4-7.4-19.4-20zm26.4 0c0-6.7-2.6-10.7-7-10.7s-7 4-7 10.7c0 6.8 2.5 10.7 7 10.7s7-3.9 7-10.7zm20-19.1h11.8V92h.7c1.7-4.3 5.7-7.1 11.2-7.1 8.5 0 12.9 5.2 12.9 14.4V124h-12.1v-22c0-4.6-1.9-7.2-6-7.2-3.9 0-6.3 2.9-6.3 7.3V124h-12.1V85.8z"/></svg>