<?xml version="1.0" encoding="utf-8"?>
<!-- Generator: Adobe Illustrator 22.1.0, SVG Export Plug-In . SVG Version: 6.00 Build 0)  -->
<svg version="1.1" 
	xmlns="http://www.w3.org/2000/svg" 
	xmlns:xlink="http://www.w3.org/1999/xlink" x="0px" y="0px" viewBox="0 0 512 195" style="enable-background:new 0 0 512 195;" xml:space="preserve">
	<style type="text/css">
		#button-icon-text{
			font-family: Roboto;
			font-weight: 900;
			font-size: 80px;
		}
	</style>
	<path d="M486.7,13.9c4,0.1,7.2,3.5,7.3,7.7v151.8c-0.1,4.2-3.3,7.6-7.3,7.7H25.3c-4-0.1-7.2-3.5-7.3-7.7V21.6
	c0.1-4.2,3.3-7.6,7.3-7.7H486.7 M486.7-5H25.3C11.3-5,0,6.9,0,21.6v151.8C0,188.1,11.3,200,25.3,200h461.4
	c13.9,0,25.2-11.9,25.3-26.6V21.6C512,6.9,500.7-5,486.7-5z"/>
	<text id="button-icon-text" transform="matrix(1 0 0 1 130.09 123.39)">Button</text>
</svg>
