<?xml version="1.0" encoding="utf-8"?>
<!-- Generator: Adobe Illustrator 22.1.0, SVG Export Plug-In . SVG Version: 6.00 Build 0)  -->
<svg version="1.1" 
	xmlns="http://www.w3.org/2000/svg" 
	xmlns:xlink="http://www.w3.org/1999/xlink" x="0px" y="0px" viewBox="0 0 512 204" style="enable-background:new 0 0 512 204;" xml:space="preserve">
	<path d="M486.7,17.9c4,0.1,7.2,3.5,7.3,7.7v151.8c-0.1,4.2-3.3,7.6-7.3,7.7H25.3c-4-0.1-7.2-3.5-7.3-7.7V25.6
	c0.1-4.2,3.3-7.6,7.3-7.7L486.7,17.9 M486.7-1H25.3C11.3-1,0,10.9,0,25.6v151.8C0,192.1,11.3,204,25.3,204h461.4
	c13.9,0,25.2-11.9,25.3-26.6V25.6C512,10.9,500.7-1,486.7-1z"/>
	<g>
		<path d="M133.3,124V74.5h23.1c9.9,0,15.7,4.7,15.7,12.3c0,5.3-4,9.8-9.2,10.5v0.7c6.5,0.3,11.5,5.4,11.5,11.7
		c0,8.7-6.7,14.3-17.3,14.3H133.3z M145.9,94.7h6.7c4.6,0,7.3-2.1,7.3-5.6c0-3.5-2.5-5.7-6.8-5.7h-7.1V94.7z M153.5,115.1
		c5.2,0,8.1-2.3,8.1-6.5c0-4-2.9-6.3-8.1-6.3h-7.5v12.8H153.5z"/>
		<path d="M218.7,124h-11.8v-6.2h-0.7c-1.8,4.5-5.1,7.1-10.8,7.1c-8.1,0-13.5-5.3-13.5-14.1V85.8H194v22c0,4.7,2.3,7.1,6.2,7.1
		c4.1,0,6.4-2.8,6.4-7.3V85.8h12.1V124z"/>
		<path d="M243.3,77.1v9.3h7.7v9h-7.7v15.5c0,2.9,1.5,4.3,4.6,4.3c1.4,0,2.2-0.1,3.1-0.2v8.6c-1.3,0.3-3.5,0.5-5.8,0.5
		c-10,0-14-3.1-14-10.5V95.4h-5.9v-9h5.9v-9.3H243.3z"/>
		<path d="M274.6,77.1v9.3h7.7v9h-7.7v15.5c0,2.9,1.5,4.3,4.6,4.3c1.4,0,2.2-0.1,3.1-0.2v8.6c-1.3,0.3-3.5,0.5-5.8,0.5
		c-10,0-14-3.1-14-10.5V95.4h-5.9v-9h5.9v-9.3H274.6z"/>
		<path d="M288.3,104.9c0-12.3,7.4-20,19.4-20c12.1,0,19.4,7.5,19.4,20c0,12.6-7.2,20-19.4,20C295.5,124.9,288.3,117.5,288.3,104.9z
		 M314.7,104.9c0-6.7-2.6-10.7-7-10.7c-4.4,0-7,4-7,10.7c0,6.8,2.5,10.7,7,10.7C312.2,115.6,314.7,111.7,314.7,104.9z"/>
		<path d="M334.7,85.8h11.8V92h0.7c1.7-4.3,5.7-7.1,11.2-7.1c8.5,0,12.9,5.2,12.9,14.4V124h-12.1v-22c0-4.6-1.9-7.2-6-7.2
		c-3.9,0-6.3,2.9-6.3,7.3V124h-12.1V85.8z"/>
	</g>
</svg>
