<svg xmlns="http://www.w3.org/2000/svg" viewBox="0 0 512 205"><path d="M247.6 143.5h-5.4l-50.6-84.3c-2.9-4.8-9-6.6-14.1-4.1l-6.4 3.2-29.2-29.2c-2.2-2.2-5.2-3.3-8.2-3.2-3.1.2-5.9 1.6-7.8 4L85.2 80h-.1c-4.5-1.9-9.8-.5-12.7 3.3l-46.9 60.4h-5.7c-1.9 0-3.4 1.5-3.4 3.4s1.5 3.4 3.4 3.4h227.7c1.9 0 3.4-1.5 3.4-3.4.1-2.1-1.4-3.6-3.3-3.6zM131.2 34.2c.7-.9 1.7-1.4 2.8-1.4s2.2.4 3 1.2l29.6 29.6-1.6 5.6c-.5 1.8.5 3.7 2.3 4.2.4.1.6.2 1 .2 1.4 0 2.9-1 3.3-2.4l1.8-6.1 7.2-3.6c1.8-.9 4.1-.3 5.1 1.4l48.4 80.8H212l-49.3-42.8 4.4-15.3c.5-1.8-.5-3.7-2.3-4.2-1.8-.5-3.7.5-4.2 2.3L157 95.9l-23.8-20.7c-4-3.5-9.9-3.5-14-.2l-15.6 13-11.9-5.2 39.5-48.6zm1 109.3l-23.7-50.7 15.2-12.7c1.4-1.3 3.6-1.2 5.1.1l72.8 63.4-69.4-.1zm-54.4-56c1.1-1.4 3-1.9 4.6-1.2l19.3 8.3 22.9 49.1H62.3l15.5-27.9c.9-1.6.4-3.8-1.4-4.7-1.6-.9-3.8-.4-4.7 1.4l-17.4 31.3H34.1l43.7-56.3zm356.8-28.6H314.9c-.9 0-1.7-1.3-1.7-2.8v-9.3c0-1.5.8-2.8 1.7-2.8h119.6c.9 0 1.7 1.3 1.7 2.8v9.3c0 1.5-.7 2.8-1.6 2.8zm57 23.6H315.3c-1.1 0-2.1-1.3-2.1-2.8v-9.3c0-1.5 1-2.8 2.1-2.8h176.4c1.1 0 2.1 1.3 2.1 2.8v9.3c-.1 1.5-1 2.8-2.2 2.8zm-93.7 88.3c-.4 0-.8-.2-1.1-.5-.4-.4-.6-1-.4-1.6l3.5-10.1c-2.3-3.9-3.5-8.3-3.5-12.8 0-13.8 11.2-25 25-25s25 11.2 25 25-11.2 25-25 25c-4.5 0-8.9-1.2-12.8-3.5l-10.1 3.5c-.2-.1-.4 0-.6 0zm10.8-6.9c.3 0 .6.1.8.2 3.5 2.3 7.6 3.5 11.8 3.5 12.1 0 21.9-9.8 21.9-21.9s-9.8-21.9-21.9-21.9c-12.1 0-21.9 9.8-21.9 21.9 0 4.2 1.2 8.2 3.5 11.8.3.4.3.9.2 1.3l-2.7 7.8 7.8-2.7c.2.1.4 0 .5 0zm-43.8-38.2c-2.9-3.2-6.9-4.9-11.2-4.9-3.2 0-6.2 1-8.8 3-1.3 1-2.5 2.3-3.6 3.7-1.1-1.5-2.3-2.7-3.6-3.7-2.6-2-5.6-3-8.8-3-4.3 0-8.3 1.7-11.2 4.9-2.9 3.1-4.5 7.4-4.5 12 0 4.8 1.8 9.1 5.6 13.7 3.4 4.1 8.3 8.3 14 13.1 1.9 1.6 4.1 3.5 6.4 5.5.6.5 1.4.8 2.2.8.8 0 1.6-.3 2.2-.8 2.3-2 4.5-3.9 6.4-5.5 5.7-4.8 10.6-9 14-13.1 3.8-4.6 5.6-8.9 5.6-13.7-.3-4.7-1.8-8.9-4.7-12z"/><path fill="none" d="M500 205H12c-6.6 0-12-5.4-12-12V12C0 5.4 5.4 0 12 0h488c6.6 0 12 5.4 12 12v181c0 6.6-5.4 12-12 12z"/></svg>