<?xml version="1.0" encoding="utf-8"?>
<!-- Generator: Adobe Illustrator 22.1.0, SVG Export Plug-In . SVG Version: 6.00 Build 0)  -->
<svg version="1.1" 
	xmlns="http://www.w3.org/2000/svg" 
	xmlns:xlink="http://www.w3.org/1999/xlink" x="0px" y="0px" viewBox="0 0 512 512" style="enable-background:new 0 0 512 512;" xml:space="preserve">
	<style type="text/css">
	#card-icon-wrapper {
		fill: none;
		stroke: currentColor;
		stroke-width: 18;
		stroke-miterlimit: 10;
	}
	</style>
	<path id="card-icon-wrapper" d="M455,477.1H59c-6.6,0-12-5.4-12-12V49c0-6.6,5.4-12,12-12h396c6.6,0,12,5.4,12,12v416.1
	C467,471.7,461.6,477.1,455,477.1z"/>
	<path d="M227.2,164.2c7.1,0,12.8-5.7,12.8-12.8c0-7.1-5.7-12.8-12.8-12.8s-12.8,5.7-12.8,12.8C214.4,158.5,220.1,164.2,227.2,164.2z
	 M227.2,146.1c2.9,0,5.3,2.4,5.3,5.3c0,2.9-2.4,5.3-5.3,5.3c-2.9,0-5.3-2.4-5.3-5.3C221.9,148.5,224.3,146.1,227.2,146.1z"/>
	<path d="M366.3,102.9H145.7c-4.8,0-8.7,3.9-8.7,8.7v186.7c0,4.8,3.9,8.7,8.7,8.7h220.6c4.8,0,8.7-3.9,8.7-8.7V111.6
	C375,106.8,371.1,102.9,366.3,102.9z M361.1,116.8v110.4l-43.9-43.9c-2.9-2.9-7.5-2.9-10.4,0l-62,62l-39.6-39.6
	c-1.4-1.4-3.2-2.2-5.2-2.2c-2,0-3.8,0.8-5.2,2.1l-43.9,43.9V116.8H361.1z M150.9,293v-23.7l49-49l39.6,39.6c1.4,1.4,3.2,2.2,5.2,2.2
	c2,0,3.8-0.8,5.2-2.1l62-62l49,49V293H150.9z"/>
	<path d="M392,421.5H99c-2.2,0-4-1.8-4-4v-16.9c0-2.2,1.8-4,4-4H392c2.2,0,4,1.8,4,4v16.9C396,419.7,394.2,421.5,392,421.5z"/>
	<path d="M272,383.5H99c-2.2,0-4-1.8-4-4v-16.9c0-2.2,1.8-4,4-4H272c2.2,0,4,1.8,4,4v16.9C276,381.7,274.2,383.5,272,383.5z"/>
</svg>
