<?xml version="1.0" encoding="utf-8"?>
<!-- Generator: Adobe Illustrator 22.1.0, SVG Export Plug-In . SVG Version: 6.00 Build 0)  -->
<svg version="1.1" id="Calque_1" xmlns="http://www.w3.org/2000/svg" xmlns:xlink="http://www.w3.org/1999/xlink" x="0px" y="0px"
	 viewBox="0 0 512 512" style="enable-background:new 0 0 512 512;" xml:space="preserve">
<style type="text/css">
	.st0{fill:none;stroke:#000000;stroke-width:15;stroke-miterlimit:10;}
</style>
<path id="card-icon-wrapper" class="st0" d="M416.7,447.1H97.6c-5.3,0-9.7-4.6-9.7-10.2V83.1c0-5.6,4.4-10.2,9.7-10.2h319.1
	c5.3,0,9.7,4.6,9.7,10.2v353.8C426.4,442.5,422,447.1,416.7,447.1z"/>
<path d="M384.3,244.3h-6l-56-93.3c-3.2-5.3-10-7.3-15.6-4.5l-7.1,3.5l-32.3-32.3c-2.4-2.4-5.7-3.7-9.1-3.5c-3.4,0.2-6.5,1.8-8.6,4.4
	l-45,55.4l-0.1,0c-5-2.1-10.8-0.6-14.1,3.6l-51.9,66.8h-6.3c-2.1,0-3.8,1.7-3.8,3.8c0,2.1,1.7,3.8,3.8,3.8h252
	c2.1,0,3.8-1.7,3.8-3.8C388.1,246,386.4,244.3,384.3,244.3z M255.5,123.4c0.8-1,1.9-1.5,3.1-1.6c1.2-0.1,2.4,0.4,3.3,1.3l32.7,32.7
	l-1.8,6.2c-0.6,2,0.6,4.1,2.6,4.7c0.4,0.1,0.7,0.2,1.1,0.2c1.6,0,3.2-1.1,3.6-2.7l2-6.7l8-4c2-1,4.5-0.3,5.6,1.6l53.6,89.4h-24.4
	l-54.5-47.4l4.9-16.9c0.6-2-0.6-4.1-2.6-4.7c-2-0.6-4.1,0.6-4.7,2.6l-4,13.5l-26.3-22.9c-4.4-3.9-10.9-3.9-15.5-0.2l-17.3,14.4
	l-13.2-5.7L255.5,123.4z M256.6,244.3l-26.2-56.1l16.8-14c1.6-1.4,4-1.3,5.6,0.1l80.6,70.1H256.6z M196.4,182.3
	c1.2-1.6,3.3-2.1,5.1-1.3l21.4,9.2l25.3,54.3h-68.9l17.2-30.9c1-1.8,0.4-4.2-1.5-5.2c-1.8-1-4.2-0.4-5.2,1.5l-19.2,34.6h-22.5
	L196.4,182.3z"/>
<path d="M219.3,362.7c-3.1-3.4-7.4-5.2-12-5.2c-3.5,0-6.6,1.1-9.4,3.3c-1.4,1.1-2.7,2.4-3.8,4c-1.1-1.6-2.4-2.9-3.8-4
	c-2.8-2.2-6-3.3-9.4-3.3c-4.6,0-8.9,1.9-12,5.2c-3.1,3.3-4.8,7.9-4.8,12.8c0,5.1,1.9,9.7,6,14.6c3.6,4.4,8.9,8.8,14.9,14
	c2.1,1.8,4.4,3.8,6.8,5.9c0.6,0.6,1.5,0.9,2.3,0.9c0.9,0,1.7-0.3,2.3-0.9c2.4-2.1,4.8-4.1,6.8-5.9c6-5.2,11.3-9.6,14.9-14
	c4.1-4.9,6-9.5,6-14.6C224.1,370.6,222.4,366,219.3,362.7z"/>
<g id="Speech_Bubble_48_">
	<g>
		<path d="M292.8,408.4h-4.3l3-3c1.6-1.6,2.6-3.7,2.9-6c-4.2-2.8-7.3-6.4-9-10.6c-1.7-4.2-1.9-8.8-0.6-13.3c1.5-5.4,5.1-10.4,10-14
			c5.4-3.9,12-5.9,19.3-5.9c9.1,0,16.9,2.6,22.3,7.6c4.9,4.5,7.6,10.5,7.6,17c0,3.2-0.6,6.2-1.9,9.1c-1.3,3-3.2,5.7-5.7,7.9
			c-5.4,5-13.2,7.6-22.3,7.6c-3.4,0-6.9-0.5-10.1-1.3C301.1,406.7,297.1,408.4,292.8,408.4L292.8,408.4z M314.2,359.1
			c-14.6,0-23.5,8.7-25.9,17.3c-2.3,8.1,1.1,15.8,8.9,20.6l0.9,0.5l0,1c-0.1,2-0.5,4-1.4,5.7c2.1-0.7,4-2,5.5-3.8l0.7-0.9l1.1,0.3
			c3.1,0.9,6.7,1.4,10.2,1.4c18.1,0,26.4-11,26.4-21.2c0-5.5-2.3-10.6-6.5-14.4C329.3,361.4,322.4,359.1,314.2,359.1L314.2,359.1z"
			/>
	</g>
</g>
<path d="M283.6,293.2H131.4c-1.2,0-2.2-1-2.2-2.2v-7.2c0-1.2,1-2.2,2.2-2.2h152.1c1.2,0,2.2,1,2.2,2.2v7.2
	C285.7,292.2,284.8,293.2,283.6,293.2z"/>
<path d="M315.6,311.5H131.4c-1.2,0-2.2-1-2.2-2.2v-7.2c0-1.2,1-2.2,2.2-2.2h184.2c1.2,0,2.2,1,2.2,2.2v7.2
	C317.8,310.5,316.8,311.5,315.6,311.5z"/>
</svg>
