<?xml version="1.0" encoding="utf-8"?>
<!-- Generator: Adobe Illustrator 22.1.0, SVG Export Plug-In . SVG Version: 6.00 Build 0)  -->
<svg version="1.1" 
	xmlns="http://www.w3.org/2000/svg" 
	xmlns:xlink="http://www.w3.org/1999/xlink" x="0px" y="0px" viewBox="0 0 512 205" style="enable-background:new 0 0 512 205;" xml:space="preserve">
	<path d="M247.6,143.5h-5.4l-50.6-84.3c-2.9-4.8-9-6.6-14.1-4.1l-6.4,3.2l-29.2-29.2c-2.2-2.2-5.2-3.3-8.2-3.2
	c-3.1,0.2-5.9,1.6-7.8,4L85.2,80h-0.1c-4.5-1.9-9.8-0.5-12.7,3.3l-46.9,60.4h-5.7c-1.9,0-3.4,1.5-3.4,3.4c0,1.9,1.5,3.4,3.4,3.4
	h227.7c1.9,0,3.4-1.5,3.4-3.4C251,145,249.5,143.5,247.6,143.5z M131.2,34.2c0.7-0.9,1.7-1.4,2.8-1.4s2.2,0.4,3,1.2l29.6,29.6
	l-1.6,5.6c-0.5,1.8,0.5,3.7,2.3,4.2c0.4,0.1,0.6,0.2,1,0.2c1.4,0,2.9-1,3.3-2.4l1.8-6.1l7.2-3.6c1.8-0.9,4.1-0.3,5.1,1.4l48.4,80.8
	H212l-49.3-42.8l4.4-15.3c0.5-1.8-0.5-3.7-2.3-4.2c-1.8-0.5-3.7,0.5-4.2,2.3l-3.6,12.2l-23.8-20.7c-4-3.5-9.9-3.5-14-0.2l-15.6,13
	l-11.9-5.2L131.2,34.2z M132.2,143.5l-23.7-50.7l15.2-12.7c1.4-1.3,3.6-1.2,5.1,0.1l72.8,63.4L132.2,143.5L132.2,143.5z M77.8,87.5
	c1.1-1.4,3-1.9,4.6-1.2l19.3,8.3l22.9,49.1H62.3l15.5-27.9c0.9-1.6,0.4-3.8-1.4-4.7c-1.6-0.9-3.8-0.4-4.7,1.4l-17.4,31.3H34.1
	L77.8,87.5z"/>
	<path d="M434.6,58.9H314.9c-0.9,0-1.7-1.3-1.7-2.8v-9.3c0-1.5,0.8-2.8,1.7-2.8h119.6c0.9,0,1.7,1.3,1.7,2.8v9.3
	C436.2,57.6,435.5,58.9,434.6,58.9z"/>
	<path d="M491.6,82.5H315.3c-1.1,0-2.1-1.3-2.1-2.8v-9.3c0-1.5,1-2.8,2.1-2.8h176.4c1.1,0,2.1,1.3,2.1,2.8v9.3
	C493.7,81.2,492.8,82.5,491.6,82.5z"/>
	<path d="M397.9,170.8c-0.4,0-0.8-0.2-1.1-0.5c-0.4-0.4-0.6-1-0.4-1.6l3.5-10.1c-2.3-3.9-3.5-8.3-3.5-12.8c0-13.8,11.2-25,25-25
	s25,11.2,25,25c0,13.8-11.2,25-25,25c-4.5,0-8.9-1.2-12.8-3.5l-10.1,3.5C398.3,170.7,398.1,170.8,397.9,170.8L397.9,170.8z
	 M408.7,163.9c0.3,0,0.6,0.1,0.8,0.2c3.5,2.3,7.6,3.5,11.8,3.5c12.1,0,21.9-9.8,21.9-21.9s-9.8-21.9-21.9-21.9
	c-12.1,0-21.9,9.8-21.9,21.9c0,4.2,1.2,8.2,3.5,11.8c0.3,0.4,0.3,0.9,0.2,1.3l-2.7,7.8l7.8-2.7C408.4,164,408.6,163.9,408.7,163.9z" />
	<path d="M364.9,125.7c-2.9-3.2-6.9-4.9-11.2-4.9c-3.2,0-6.2,1-8.8,3c-1.3,1-2.5,2.3-3.6,3.7c-1.1-1.5-2.3-2.7-3.6-3.7
	c-2.6-2-5.6-3-8.8-3c-4.3,0-8.3,1.7-11.2,4.9c-2.9,3.1-4.5,7.4-4.5,12c0,4.8,1.8,9.1,5.6,13.7c3.4,4.1,8.3,8.3,14,13.1
	c1.9,1.6,4.1,3.5,6.4,5.5c0.6,0.5,1.4,0.8,2.2,0.8c0.8,0,1.6-0.3,2.2-0.8c2.3-2,4.5-3.9,6.4-5.5c5.7-4.8,10.6-9,14-13.1
	c3.8-4.6,5.6-8.9,5.6-13.7C369.3,133,367.8,128.8,364.9,125.7z"/>
	<path fill="none" d="M500,205H12c-6.6,0-12-5.4-12-12V12C0,5.4,5.4,0,12,0h488c6.6,0,12,5.4,12,12v181C512,199.6,506.6,205,500,205z
	"/>
</svg>
