<svg xmlns="http://www.w3.org/2000/svg" viewBox="0 0 512 512"><path d="M438.957 19.477H73.043C32.766 19.477 0 52.244 0 92.52v246.961c0 40.276 32.766 73.043 73.043 73.043h28.663l.561 64.483a15.648 15.648 0 0015.649 15.517 15.64 15.64 0 009.565-3.262l99.425-76.738h212.051c40.277 0 73.043-32.767 73.043-73.043V92.52c0-40.276-32.766-73.043-73.043-73.043zm41.739 320.005c0 23.015-18.724 41.739-41.739 41.739H221.569c-3.46 0-6.823 1.147-9.563 3.261l-78.711 60.75-.422-48.495c-.074-8.591-7.06-15.516-15.651-15.516H73.043c-23.015 0-41.739-18.724-41.739-41.739V92.52c0-23.015 18.724-41.739 41.739-41.739h365.915c23.015 0 41.739 18.724 41.739 41.739v246.962z"/></svg>