<svg xmlns="http://www.w3.org/2000/svg" viewBox="0 0 512 512"><path d="M486.7 172.9c3.9 0 7.3 3.5 7.3 7.7v151.8c0 4.1-3.3 7.7-7.3 7.7H25.3c-3.9 0-7.3-3.5-7.3-7.7V180.6c0-4.1 3.3-7.7 7.3-7.7h461.4m0-18.9H25.3C11.4 154 0 166 0 180.6v151.8C0 347 11.4 359 25.3 359h461.4c13.9 0 25.3-12 25.3-26.6V180.6c0-14.6-11.4-26.6-25.3-26.6z"/><path d="M89.3 266.3H73.1l-3.2 10.9H57.5l16.6-49.5h15.4l16.6 49.5H92.4l-3.1-10.9zm-13.8-9h11.4l-5.3-18.4H81l-5.5 18.4zm35.3 8.9c0-7 5.4-11 15.3-11.6l8.3-.5v-3c0-2.6-1.9-4.1-5.3-4.1-3.2 0-5.3 1.1-6 3.1h-10.9c.5-7.4 7.3-12 17.6-12 10.5 0 16.5 4.8 16.5 13v26h-11.8v-4.7h-.7c-1.7 3.3-5.9 5.3-10.7 5.3-7.3.1-12.3-4.5-12.3-11.5zm23.6-2.7V261l-6.4.4c-3.6.3-5.5 1.7-5.5 4 0 2.4 2 3.9 5.1 3.9 3.8 0 6.8-2.5 6.8-5.8zm19.1 8.3c0-3.9 2.6-6.6 6.9-6.6 4.4 0 6.9 2.7 6.9 6.6 0 3.8-2.6 6.5-6.9 6.5-4.3 0-6.9-2.6-6.9-6.5zm19.3 0c0-3.9 2.6-6.6 6.9-6.6 4.4 0 6.9 2.7 6.9 6.6 0 3.8-2.6 6.5-6.9 6.5-4.3 0-6.9-2.6-6.9-6.5zm19.3 0c0-3.9 2.6-6.6 6.9-6.6 4.4 0 6.9 2.7 6.9 6.6 0 3.8-2.6 6.5-6.9 6.5-4.3 0-6.9-2.6-6.9-6.5zm44.8 18.9h-10.7c-.9 0-1.7-.8-1.7-1.7v-71.6c0-.9.8-1.7 1.7-1.7h10.7c.9 0 1.7.8 1.7 1.7V289c0 .9-.8 1.7-1.7 1.7z"/></svg>