<?xml version="1.0" encoding="utf-8"?>
<!-- Generator: Adobe Illustrator 22.1.0, SVG Export Plug-In . SVG Version: 6.00 Build 0)  -->
<svg version="1.1" 
	xmlns="http://www.w3.org/2000/svg" 
	xmlns:xlink="http://www.w3.org/1999/xlink" x="0px" y="0px" viewBox="0 0 512 512" style="enable-background:new 0 0 512 512;" xml:space="preserve">
	<path d="M486.7,172.9c3.9,0,7.3,3.5,7.3,7.7v151.8c0,4.1-3.3,7.7-7.3,7.7H25.3c-3.9,0-7.3-3.5-7.3-7.7V180.6c0-4.1,3.3-7.7,7.3-7.7
	L486.7,172.9 M486.7,154H25.3C11.4,154,0,166,0,180.6v151.8C0,347,11.4,359,25.3,359h461.4c13.9,0,25.3-12,25.3-26.6V180.6
	C512,166,500.6,154,486.7,154L486.7,154z"/>
	<g>
		<path d="M89.3,266.3H73.1l-3.2,10.9H57.5l16.6-49.5h15.4l16.6,49.5H92.4L89.3,266.3z M75.5,257.3h11.4l-5.3-18.4H81L75.5,257.3z"/>
		<path d="M110.8,266.2c0-7,5.4-11,15.3-11.6l8.3-0.5v-3c0-2.6-1.9-4.1-5.3-4.1c-3.2,0-5.3,1.1-6,3.1h-10.9c0.5-7.4,7.3-12,17.6-12
		c10.5,0,16.5,4.8,16.5,13v26h-11.8v-4.7h-0.7c-1.7,3.3-5.9,5.3-10.7,5.3C115.8,277.8,110.8,273.2,110.8,266.2z M134.4,263.5V261
		l-6.4,0.4c-3.6,0.3-5.5,1.7-5.5,4c0,2.4,2,3.9,5.1,3.9C131.4,269.3,134.4,266.8,134.4,263.5z"/>
		<path d="M153.5,271.8c0-3.9,2.6-6.6,6.9-6.6c4.4,0,6.9,2.7,6.9,6.6c0,3.8-2.6,6.5-6.9,6.5C156.1,278.3,153.5,275.7,153.5,271.8z"/>
		<path d="M172.8,271.8c0-3.9,2.6-6.6,6.9-6.6c4.4,0,6.9,2.7,6.9,6.6c0,3.8-2.6,6.5-6.9,6.5C175.4,278.3,172.8,275.7,172.8,271.8z"/>
		<path d="M192.1,271.8c0-3.9,2.6-6.6,6.9-6.6c4.4,0,6.9,2.7,6.9,6.6c0,3.8-2.6,6.5-6.9,6.5C194.7,278.3,192.1,275.7,192.1,271.8z"/>
	</g>
	<path d="M236.9,290.7h-10.7c-0.9,0-1.7-0.8-1.7-1.7v-71.6c0-0.9,0.8-1.7,1.7-1.7h10.7c0.9,0,1.7,0.8,1.7,1.7V289
	C238.6,289.9,237.8,290.7,236.9,290.7z"/>
</svg>
