<?xml version="1.0" encoding="utf-8"?>
<!-- Generator: Adobe Illustrator 22.1.0, SVG Export Plug-In . SVG Version: 6.00 Build 0)  -->
<svg version="1.1" 
	xmlns="http://www.w3.org/2000/svg" 
	xmlns:xlink="http://www.w3.org/1999/xlink" x="0px" y="0px" viewBox="0 0 512 512" style="enable-background:new 0 0 512 512;" xml:space="preserve">
	<style type="text/css">
	#input-icon-text{
		font-family: Roboto;
		font-weight: 900;
		font-size: 80px;
	}
	</style>
	<path d="M486.7,172.9c3.9,0,7.3,3.5,7.3,7.7v151.8c0,4.1-3.3,7.7-7.3,7.7H25.3c-3.9,0-7.3-3.5-7.3-7.7V180.6c0-4.1,3.3-7.7,7.3-7.7
	H486.7 M486.7,154H25.3C11.4,154,0,166,0,180.6v151.8C0,347,11.4,359,25.3,359h461.4c13.9,0,25.3-12,25.3-26.6V180.6
	C512,166,500.6,154,486.7,154L486.7,154z"/>
	<path d="M245.9,310h-12.8c-3.4,0-6.1-2.8-6.1-6.1v-93.8c0-3.4,2.8-6.1,6.1-6.1h12.8c3.4,0,6.1,2.8,6.1,6.1v93.8
	C252,307.2,249.2,310,245.9,310z"/>
	<text id="input-icon-text" transform="matrix(1 0 0 1 44.3398 280.5493)">Aa...</text>
</svg>
