<?xml version="1.0" encoding="utf-8"?>
<!-- Generator: Adobe Illustrator 22.1.0, SVG Export Plug-In . SVG Version: 6.00 Build 0)  -->
<svg version="1.1" id="Calque_1" xmlns="http://www.w3.org/2000/svg" xmlns:xlink="http://www.w3.org/1999/xlink" x="0px" y="0px"
	 viewBox="0 0 512 512" style="enable-background:new 0 0 512 512;" xml:space="preserve">
<g>
	<path d="M486.7,177c3.9,0,7.3,3.3,7.3,7.3v144.4c0,3.9-3.3,7.3-7.3,7.3H25.3c-3.9,0-7.3-3.3-7.3-7.3V184.3c0-3.9,3.3-7.3,7.3-7.3
		H486.7 M486.7,159H25.3C11.4,159,0,170.4,0,184.3v144.4C0,342.6,11.4,354,25.3,354h461.4c13.9,0,25.3-11.4,25.3-25.3V184.3
		C512,170.4,500.6,159,486.7,159L486.7,159z"/>
</g>
<path d="M58.4,310h-7.8c-3.4,0-6.1-2.8-6.1-6.1v-93.8c0-3.4,2.8-6.1,6.1-6.1h7.8c3.4,0,6.1,2.8,6.1,6.1v93.8
	C64.5,307.2,61.7,310,58.4,310z"/>
<path d="M206.8,298.7h-8.3c-4.6,0-8.3-3.7-8.3-8.3v-66.7c0-4.6,3.7-8.3,8.3-8.3h8.3c2.3,0,4.2-1.9,4.2-4.2s-1.9-4.2-4.2-4.2h-8.3
	c-5,0-9.4,2.3-12.5,5.8c-3.1-3.5-7.5-5.8-12.5-5.8h-8.3c-2.3,0-4.2,1.9-4.2,4.2s1.9,4.2,4.2,4.2h8.3c4.6,0,8.3,3.7,8.3,8.3v66.7
	c0,4.6-3.7,8.3-8.3,8.3h-8.3c-2.3,0-4.2,1.9-4.2,4.2s1.9,4.2,4.2,4.2h8.3c5,0,9.4-2.3,12.5-5.8c3.1,3.5,7.5,5.8,12.5,5.8h8.3
	c2.3,0,4.2-1.9,4.2-4.2S209.1,298.7,206.8,298.7z"/>
</svg>
