<?xml version="1.0" encoding="utf-8"?>
<!-- Generator: Adobe Illustrator 22.1.0, SVG Export Plug-In . SVG Version: 6.00 Build 0)  -->
<svg version="1.1" id="Calque_1" xmlns="http://www.w3.org/2000/svg" xmlns:xlink="http://www.w3.org/1999/xlink" x="0px" y="0px"
	 viewBox="0 0 512 512" style="enable-background:new 0 0 512 512;" xml:space="preserve">
<style type="text/css">
	.st0{font-family:'Helvetica-Bold';}
	.st1{font-size:72px;}
</style>
<g>
	<path d="M486.7,177c3.9,0,7.3,3.3,7.3,7.3v144.4c0,3.9-3.3,7.3-7.3,7.3H25.3c-3.9,0-7.3-3.3-7.3-7.3V184.3c0-3.9,3.3-7.3,7.3-7.3
		H486.7 M486.7,159H25.3C11.4,159,0,170.4,0,184.3v144.4C0,342.6,11.4,354,25.3,354h461.4c13.9,0,25.3-11.4,25.3-25.3V184.3
		C512,170.4,500.6,159,486.7,159L486.7,159z"/>
</g>
<path d="M185.9,310h-12.8c-3.4,0-6.1-2.8-6.1-6.1v-93.8c0-3.4,2.8-6.1,6.1-6.1h12.8c3.4,0,6.1,2.8,6.1,6.1v93.8
	C192,307.2,189.2,310,185.9,310z"/>
<text transform="matrix(1 0 0 1 44.3398 280.5493)" class="st0 st1">Hel</text>
</svg>
