<svg xmlns="http://www.w3.org/2000/svg" viewBox="0 0 200.8 184.1"><path d="M74.3 121.8H39.8L33 145H6.3L41.8 39.3h32.9L110.2 145H80.9l-6.6-23.2zm-29.4-19.4h24.3L57.9 63.1h-1.4l-11.6 39.3z"/><path fill="#AAABAC" d="M114.9 121.6c0-14.9 11.6-23.5 32.6-24.8l17.8-1v-6.4c0-5.5-4.1-8.8-11.3-8.8-6.8 0-11.2 2.3-12.9 6.6h-23.3c1.2-15.8 15.6-25.6 37.6-25.6 22.5 0 35.3 10.3 35.3 27.8V145h-25.2v-10.1h-1.4c-3.7 7-12.6 11.4-22.9 11.4-15.6-.1-26.3-9.8-26.3-24.7zm50.4-5.9v-5.3l-13.7.9c-7.7.6-11.7 3.6-11.7 8.5 0 5.2 4.3 8.4 10.8 8.4 8.3 0 14.6-5.5 14.6-12.5z"/></svg>