<?xml version="1.0" encoding="utf-8"?>
<!-- Generator: Adobe Illustrator 22.1.0, SVG Export Plug-In . SVG Version: 6.00 Build 0)  -->
<svg version="1.1" 
	xmlns="http://www.w3.org/2000/svg" 
	xmlns:xlink="http://www.w3.org/1999/xlink" x="0px" y="0px" viewBox="0 0 200.8 184.1" style="enable-background:new 0 0 200.8 184.1;" xml:space="preserve">
	<g>
		<path d="M74.3,121.8H39.8L33,145H6.3L41.8,39.3h32.9L110.2,145H80.9L74.3,121.8z M44.9,102.4h24.3L57.9,63.1h-1.4L44.9,102.4z"/>
	</g>
	<g>
		<path fill="#AAABAC" d="M114.9,121.6c0-14.9,11.6-23.5,32.6-24.8l17.8-1v-6.4c0-5.5-4.1-8.8-11.3-8.8c-6.8,0-11.2,2.3-12.9,6.6h-23.3
		c1.2-15.8,15.6-25.6,37.6-25.6c22.5,0,35.3,10.3,35.3,27.8V145h-25.2v-10.1h-1.4c-3.7,7-12.6,11.4-22.9,11.4
		C125.6,146.2,114.9,136.5,114.9,121.6z M165.3,115.7v-5.3l-13.7,0.9c-7.7,0.6-11.7,3.6-11.7,8.5c0,5.2,4.3,8.4,10.8,8.4
		C159,128.2,165.3,122.7,165.3,115.7z"/>
	</g>
</svg>
