<svg xmlns="http://www.w3.org/2000/svg" viewBox="60 -8 36 40"><path fill="#430098" d="M92.3-8H63.6c-2 0-3.6 1.6-3.6 3.6v32.8c0 2 1.6 3.6 3.6 3.6h28.7c2 0 3.6-1.6 3.6-3.6V-4.4c0-2-1.6-3.6-3.6-3.6zm1.6 36.4c0 .9-.7 1.6-1.6 1.6H63.6c-.9 0-1.6-.7-1.6-1.6V-4.4c0-.9.7-1.6 1.6-1.6h28.7c.9 0 1.6.7 1.6 1.6v32.8zM69 26l4.5-4-4.5-4v8zM85.2 9.8C84.4 9 82.9 8 80.4 8c-2.7 0-5.5.7-7.5 1.4V-2h-4v17.3l2.8-1.3s4.6-2.1 8.6-2.1c2 0 2.5 1.1 2.5 2.1v12h4V14c.1-.3.1-2.5-1.6-4.2zm-5.3-5.3h4c1.8-2.1 2.7-4.2 3-6.5h-4c-.4 2.3-1.4 4.4-3 6.5z"/></svg>