<svg xmlns="http://www.w3.org/2000/svg" width="50" height="50" viewBox="0 0 13 26"><path d="M11.71 10.41c-1.4-6.08-4.32-7.7-5.06-8.84C6.34 1.06 6.07.54 5.84 0c-.04.54-.11.88-.58 1.29C4.32 2.11.35 5.3.01 12.21-.3 18.65 4.82 22.62 5.5 23.03c.52.25 1.15 0 1.46-.23 2.47-1.67 5.84-6.11 4.75-12.39" fill="#10AA50"/><path d="M5.95 19.5c-.13 1.58-.23 2.5-.57 3.4 0 0 .23 1.51.38 3.1h.56c.13-1.12.33-2.24.6-3.34-.71-.33-.94-1.77-.97-3.16z" fill="#B8C4C2"/><path d="M7.03 22.75c-.69-.32-.89-1.81-.92-3.2.17-2.3.22-4.6.15-6.91-.04-1.2.02-11.18-.3-12.64.22.49.47.97.74 1.44.74 1.15 3.63 2.77 5.01 8.88 1.08 6.29-2.24 10.74-4.68 12.43z" fill="#12924F"/></svg>